#tb 0: 1/48000
#media_type 0: audio
#codec_id 0: s337m_16
#sample_rate 0: 48000
#channel_layout_name 0: 5.1(side)
0,        345,        345,     1920,     7680, 0x4df0f5d4
0,       2265,       2265,     1920,     7680, 0x420e119f
0,       4185,       4185,     1920,     7680, 0x09dfdeac
0,       6105,       6105,     1920,     7680, 0xd9e3467c
0,       8025,       8025,     1920,     7680, 0x8ec43101
0,       9945,       9945,     1920,     7680, 0x955d673a
0,      11865,      11865,     1920,     7680, 0x2fa95852
0,      13785,      13785,     1920,     7680, 0x299e1705
0,      15705,      15705,     1920,     7680, 0x35c1e4ab
0,      17625,      17625,     1920,     7680, 0x5ae127b7
0,      19545,      19545,     1920,     7680, 0xe52108a2
0,      21465,      21465,     1920,     7680, 0x3e5c22fa
0,      23385,      23385,     1920,     7680, 0x89c1531f
0,      25305,      25305,     1920,     7680, 0xeb56f771
0,      27225,      27225,     1920,     7680, 0xae960880
0,      29145,      29145,     1920,     7680, 0x307ef2f5
0,      31065,      31065,     1920,     7680, 0x4d54fcc7
0,      32985,      32985,     1920,     7680, 0x29732629
0,      34905,      34905,     1920,     7680, 0x57481d0c
0,      36825,      36825,     1920,     7680, 0xdc91fc3b
0,      38745,      38745,     1920,     7680, 0x9c4e11d1
0,      40665,      40665,     1920,     7680, 0x829ce057
0,      42585,      42585,     1920,     7680, 0xb145ee44
0,      44505,      44505,     1920,     7680, 0x798ed174
0,      46425,      46425,     1920,     7680, 0x091c3473
